<?xml version="1.0" encoding="UTF-8" standalone="no"?>
<svg
   version="1.0"
   width="1050.000000pt"
   height="1050.000000pt"
   viewBox="0 0 1050.000000 1050.000000"
   preserveAspectRatio="xMidYMid meet"
   id="svg2"
   sodipodi:docname="LIPS0_black.svg"
   inkscape:version="1.4.2 (ebf0e940, 2025-05-08)"
   xmlns:inkscape="http://www.inkscape.org/namespaces/inkscape"
   xmlns:sodipodi="http://sodipodi.sourceforge.net/DTD/sodipodi-0.dtd"
   xmlns="http://www.w3.org/2000/svg"
   xmlns:svg="http://www.w3.org/2000/svg">
  <defs
     id="defs2" />
  <sodipodi:namedview
     id="namedview2"
     pagecolor="#ffffff"
     bordercolor="#000000"
     borderopacity="0.25"
     inkscape:showpageshadow="2"
     inkscape:pageopacity="0.0"
     inkscape:pagecheckerboard="0"
     inkscape:deskcolor="#d1d1d1"
     inkscape:document-units="pt"
     inkscape:zoom="0.29847839"
     inkscape:cx="711.94433"
     inkscape:cy="1402.1115"
     inkscape:window-width="976"
     inkscape:window-height="1186"
     inkscape:window-x="102"
     inkscape:window-y="91"
     inkscape:window-maximized="0"
     inkscape:current-layer="g2" />
  <g
     transform="translate(0.000000,1050.000000) scale(0.100000,-0.100000)"
     fill="#000000"
     stroke="none"
     id="g2"
     style="fill:#ff4600;fill-opacity:1">
    <path
       d="M1000 5250 l0 -4250 4250 0 4250 0 0 2750 0 2750 -1250 0 -1250 0 0 -1500 0 -1500 -1000 0 -1000 0 0 750 0 750 -750 0 -750 0 0 2250 0 2250 -1250 0 -1250 0 0 -4250z"
       id="path1"
       style="fill:#3f4e9b;fill-opacity:1" />
    <path
       d="M7000 8250 l0 -1250 1250 0 1250 0 0 1250 0 1250 -1250 0 -1250 0 0 -1250z"
       id="path2"
       style="fill:#ff4600;fill-opacity:1" />
  </g>
</svg>
